<?xml version="1.0" standalone="no"?>
<!DOCTYPE svg PUBLIC "-//W3C//DTD SVG 20010904//EN"
 "http://www.w3.org/TR/2001/REC-SVG-20010904/DTD/svg10.dtd">
<svg version="1.0" xmlns="http://www.w3.org/2000/svg"
 width="512.000000pt" height="512.000000pt" viewBox="0 0 512.000000 512.000000"
 preserveAspectRatio="xMidYMid meet">
<metadata>
Created by potrace 1.11, written by Peter Selinger 2001-2013
</metadata>
<g transform="translate(0.000000,512.000000) scale(0.100000,-0.100000)"
fill="#000000" stroke="none">
<path d="M0 2560 l0 -2560 2560 0 2560 0 0 2560 0 2560 -2560 0 -2560 0 0
-2560z m3875 1429 c24 -6 62 -27 85 -46 163 -139 72 -393 -140 -393 -145 0
-246 123 -219 267 16 83 65 140 147 169 46 16 71 17 127 3z m-1315 -269 l0
-140 -405 0 -405 0 0 -1235 0 -1235 -155 0 -155 0 0 1235 0 1235 -390 0 -390
0 0 140 0 140 950 0 950 0 0 -140z m1430 -1475 l0 -875 235 0 235 0 0 -130 0
-130 -647 2 -648 3 0 125 0 125 258 3 257 2 0 750 0 750 -245 0 -245 0 0 125
0 125 400 0 400 0 0 -875z"/>
</g>
</svg>
